{
  "source": "C:\\Users\\Peter\\Desktop\\stuff\\MIUN\\quantitative_research\\video_compression\\videos\\BVI-HD\\BVI-HD_CDVL_videos\\ORIG\\Boxing_1920x1080_30fps.mp4",
  "output": "C:\\Users\\Peter\\Desktop\\stuff\\MIUN\\quantitative_research\\video_compression\\compressed_videos\\BVI-HD\\vp9\\3\\Boxing_1920x1080_30fps_vp9.webm",
  "codec": "vp9",
  "ok": "Input #0, mov,mp4,m4a,3gp,3g2,mj2, from 'C:\\Users\\Peter\\Desktop\\stuff\\MIUN\\quantitative_research\\video_compression\\videos\\BVI-HD\\BVI-HD_CDVL_videos\\ORIG\\Boxing_1920x1080_30fps.mp4':\n  Metadata:\n    major_brand     : isom\n    minor_version   : 512\n    compatible_brands: isomiso2avc1mp41\n    encoder         : Lavf54.28.101\n  Duration: 00:00:05.00, start: 0.000000, bitrate: 238363 kb/s\n  Stream #0:0[0x1](und): Video: h264 (High 4:4:4 Predictive) (avc1 / 0x31637661), yuv420p(progressive), 1920x1080, 238359 kb/s, 30 fps, 30 tbr, 30 tbn (default)\n    Metadata:\n      handler_name    : VideoHandler\n      vendor_id       : [0][0][0][0]\n[out#0/webm @ 0000024a1a8312c0] Codec AVOption b:a (set bitrate (in bits/s)) has not been used for any stream. The most likely reason is either wrong type (e.g. a video option with no video streams) or that it is a private option of some decoder which was not actually used for any stream.\nStream mapping:\n  Stream #0:0 -> #0:0 (h264 (native) -> vp9 (libvpx-vp9))\nPress [q] to stop, [?] for help\n[libvpx-vp9 @ 0000024a1b0cb040] v1.15.2-100-g40561f514\nOutput #0, webm, to 'C:\\Users\\Peter\\Desktop\\stuff\\MIUN\\quantitative_research\\video_compression\\compressed_videos\\BVI-HD\\vp9\\3\\Boxing_1920x1080_30fps_vp9.webm':\n  Metadata:\n    major_brand     : isom\n    minor_version   : 512\n    compatible_brands: isomiso2avc1mp41\n    encoder         : Lavf62.3.100\n  Stream #0:0(und): Video: vp9, yuv420p(tv, progressive), 1920x1080, q=2-31, 3000 kb/s, 30 fps, 1k tbn (default)\n    Metadata:\n      encoder         : Lavc62.11.100 libvpx-vp9\n      handler_name    : VideoHandler\n      vendor_id       : [0][0][0][0]\n    Side data:\n      cpb: bitrate max/min/avg: 0/0/0 buffer size: 3000000 vbv_delay: N/A\nframe=    0 fps=0.0 q=0.0 size=       0KiB time=N/A bitrate=N/A speed=N/A elapsed=0:00:00.53    \nframe=    6 fps=5.2 q=48.0 size=       1KiB time=00:00:00.20 bitrate=  25.4kbits/s speed=0.172x elapsed=0:00:01.16    \nframe=   12 fps=7.1 q=43.0 size=       1KiB time=00:00:00.40 bitrate=  12.7kbits/s speed=0.235x elapsed=0:00:01.69    \nframe=   17 fps=7.7 q=40.0 size=       1KiB time=00:00:00.56 bitrate=   9.0kbits/s speed=0.256x elapsed=0:00:02.21    \nframe=   21 fps=7.6 q=25.0 size=       1KiB time=00:00:00.70 bitrate=   7.2kbits/s speed=0.254x elapsed=0:00:02.75    \nframe=   26 fps=7.9 q=42.0 size=       1KiB time=00:00:00.86 bitrate=   5.9kbits/s speed=0.263x elapsed=0:00:03.29    \nframe=   30 fps=7.8 q=43.0 size=       1KiB time=00:00:01.00 bitrate=   5.1kbits/s speed=0.261x elapsed=0:00:03.83    \nframe=   35 fps=8.1 q=41.0 size=       1KiB time=00:00:01.16 bitrate=   4.3kbits/s speed=0.269x elapsed=0:00:04.34    \nframe=   40 fps=8.2 q=38.0 size=       1KiB time=00:00:01.33 bitrate=   3.8kbits/s speed=0.273x elapsed=0:00:04.87    \nframe=   45 fps=8.3 q=41.0 size=       1KiB time=00:00:01.50 bitrate=   3.4kbits/s speed=0.277x elapsed=0:00:05.41    \nframe=   50 fps=8.4 q=43.0 size=       1KiB time=00:00:01.66 bitrate=   3.0kbits/s speed=0.28x elapsed=0:00:05.95    \nframe=   55 fps=8.5 q=42.0 size=       1KiB time=00:00:01.83 bitrate=   2.8kbits/s speed=0.282x elapsed=0:00:06.49    \nframe=   60 fps=8.5 q=43.0 size=       1KiB time=00:00:02.00 bitrate=   2.5kbits/s speed=0.284x elapsed=0:00:07.03    \nframe=   65 fps=8.6 q=41.0 size=       1KiB time=00:00:02.16 bitrate=   2.3kbits/s speed=0.286x elapsed=0:00:07.57    \nframe=   70 fps=8.6 q=41.0 size=       1KiB time=00:00:02.33 bitrate=   2.2kbits/s speed=0.287x elapsed=0:00:08.11    \nframe=   75 fps=8.7 q=41.0 size=       1KiB time=00:00:02.50 bitrate=   2.0kbits/s speed=0.289x elapsed=0:00:08.66    \nframe=   79 fps=8.6 q=41.0 size=       1KiB time=00:00:02.63 bitrate=   1.9kbits/s speed=0.286x elapsed=0:00:09.20    \nframe=   82 fps=8.4 q=42.0 size=       1KiB time=00:00:02.73 bitrate=   1.9kbits/s speed=0.28x elapsed=0:00:09.75    \nframe=   84 fps=8.1 q=43.0 size=       1KiB time=00:00:02.80 bitrate=   1.8kbits/s speed=0.27x elapsed=0:00:10.36    \nframe=   87 fps=7.9 q=44.0 size=       1KiB time=00:00:02.90 bitrate=   1.7kbits/s speed=0.265x elapsed=0:00:10.95    \nframe=   90 fps=7.8 q=44.0 size=       1KiB time=00:00:03.00 bitrate=   1.7kbits/s speed=0.26x elapsed=0:00:11.55    \nframe=   92 fps=7.6 q=43.0 size=       1KiB time=00:00:03.06 bitrate=   1.7kbits/s speed=0.253x elapsed=0:00:12.10    \nframe=   96 fps=7.6 q=43.0 size=       1KiB time=00:00:03.20 bitrate=   1.6kbits/s speed=0.253x elapsed=0:00:12.63    \nframe=  100 fps=7.6 q=43.0 size=       1KiB time=00:00:03.33 bitrate=   1.5kbits/s speed=0.253x elapsed=0:00:13.15    \nframe=  102 fps=7.5 q=45.0 size=       1KiB time=00:00:03.40 bitrate=   1.5kbits/s speed=0.249x elapsed=0:00:13.67    \nframe=  105 fps=7.4 q=45.0 size=       1KiB time=00:00:03.50 bitrate=   1.4kbits/s speed=0.246x elapsed=0:00:14.21    \nframe=  109 fps=7.4 q=45.0 size=       1KiB time=00:00:03.63 bitrate=   1.4kbits/s speed=0.246x elapsed=0:00:14.74    \nframe=  112 fps=7.3 q=46.0 size=       1KiB time=00:00:03.73 bitrate=   1.4kbits/s speed=0.245x elapsed=0:00:15.26    \nframe=  115 fps=7.3 q=45.0 size=       1KiB time=00:00:03.83 bitrate=   1.3kbits/s speed=0.242x elapsed=0:00:15.81    \nframe=  118 fps=7.2 q=45.0 size=       1KiB time=00:00:03.93 bitrate=   1.3kbits/s speed=0.24x elapsed=0:00:16.38    \nframe=  122 fps=7.2 q=46.0 size=       1KiB time=00:00:04.06 bitrate=   1.2kbits/s speed=0.24x elapsed=0:00:16.92    \nframe=  125 fps=7.2 q=45.0 size=       1KiB time=00:00:04.16 bitrate=   1.2kbits/s speed=0.238x elapsed=0:00:17.47    \nframe=  126 fps=7.0 q=45.0 size=       1KiB time=00:00:04.20 bitrate=   1.2kbits/s speed=0.233x elapsed=0:00:18.01    \nframe=  126 fps=6.8 q=45.0 size=       1KiB time=00:00:04.20 bitrate=   1.2kbits/s speed=0.226x elapsed=0:00:18.56    \nframe=  126 fps=6.6 q=45.0 size=       1KiB time=00:00:04.20 bitrate=   1.2kbits/s speed=0.22x elapsed=0:00:19.09    \nframe=  126 fps=6.4 q=45.0 size=       1KiB time=00:00:04.20 bitrate=   1.2kbits/s speed=0.214x elapsed=0:00:19.65    \nframe=  126 fps=6.2 q=45.0 size=       1KiB time=00:00:04.20 bitrate=   1.2kbits/s speed=0.208x elapsed=0:00:20.23    \nframe=  126 fps=6.1 q=45.0 size=       1KiB time=00:00:04.20 bitrate=   1.2kbits/s speed=0.202x elapsed=0:00:20.77    \nframe=  126 fps=5.9 q=45.0 size=       1KiB time=00:00:04.20 bitrate=   1.2kbits/s speed=0.197x elapsed=0:00:21.32    \n[out#0/webm @ 0000024a1a8312c0] video:1538KiB audio:0KiB subtitle:0KiB other streams:0KiB global headers:0KiB muxing overhead: 0.111795%\nframe=  150 fps=6.9 q=42.0 Lsize=    1540KiB time=00:00:05.00 bitrate=2523.1kbits/s speed=0.231x elapsed=0:00:21.65    \n",
  "seconds": 21.91737937927246,
  "probe_out": {}
}